<svg width="205" height="339" viewBox="0 0 205 339" fill="none" xmlns="http://www.w3.org/2000/svg">
<g clip-path="url(#clip0_149_2)">
<path d="M212.366 266.028C211.903 265.74 209.54 264.428 207.114 263.113C204.688 261.797 202.608 260.419 202.493 260.051C202.378 259.682 203.89 251.499 205.854 241.865C207.818 232.232 209.459 223.992 209.5 223.555C209.559 222.924 208.471 222.185 204.258 219.99C197.289 216.358 187.937 210.651 181.607 206.166C178.81 204.185 176.308 202.656 176.047 202.768C175.785 202.88 169.058 207.833 161.099 213.773C153.14 219.714 146.3 224.719 145.901 224.897C145.337 225.147 144.116 224.513 140.451 222.069C126.431 212.72 114.618 200.333 107.473 187.49L105.764 184.417L118.462 170.404C125.447 162.697 131.213 156.263 131.276 156.106C131.34 155.95 130.317 154.251 129.003 152.331C124.476 145.717 118.886 135.666 113.496 124.45L112.467 122.309L93.2815 124.582C75.1547 126.729 74.0568 126.796 73.3921 125.799C73.0051 125.218 71.4877 122.285 70.0201 119.281C63.6378 106.215 59.8002 89.8243 59.9052 76.0784L59.9347 72.2041L61.4354 71.7687C62.2607 71.5292 70.5116 68.9781 79.7708 66.0996C93.0304 61.9774 96.6447 60.6641 96.79 59.9156C96.8914 59.393 96.8276 56.1389 96.6483 52.6844C96.2688 45.3751 96.5132 34.1292 97.1969 27.4432L97.6755 22.7625L91.6752 20.0037C88.3751 18.4863 80.218 15.038 73.5484 12.3407L61.4219 7.43651L61.8474 1.07517C62.3429 -6.33287 63.7782 -14.6519 65.7937 -21.7972C68.0037 -29.6322 75.287 -45.0222 77.176 -45.8486C77.4839 -45.9833 86.199 -44.306 96.5429 -42.1214L115.35 -38.1493L117.021 -41.311C121.631 -50.0346 130.912 -64.7229 134.942 -69.6713C135.489 -70.3427 134.026 -72.4223 123.605 -85.7857L111.64 -101.129L112.629 -102.779C114.677 -106.192 121.346 -114.863 124.668 -118.432C131.745 -126.036 142.869 -134.632 150.102 -138.085L152.701 -139.326L167.079 -126.735C174.987 -119.81 181.644 -114.068 181.873 -113.976C182.101 -113.884 184.247 -115.033 186.641 -116.531C193.205 -120.637 201.584 -125.068 209.186 -128.453C215.401 -131.22 215.995 -131.594 215.876 -132.665C215.805 -133.312 214.626 -141.86 213.256 -151.662L210.766 -169.483L213.324 -170.838C225.863 -177.477 243.141 -181.943 257.733 -182.315C267.007 -182.551 265.296 -184.698 272.502 -163.789L278.752 -145.654L283.336 -145.83C292.624 -146.186 307.301 -145.587 315.287 -144.525L317.334 -144.253L319.363 -148.43C320.479 -150.727 323.822 -158.611 326.791 -165.95L332.191 -179.293L334.05 -179.297C343.072 -179.315 356.403 -176.826 367.073 -173.131C375.062 -170.365 386.77 -164.284 387.05 -162.755C387.108 -162.444 385.514 -154.135 383.51 -144.293C381.506 -134.45 379.945 -126.213 380.041 -125.989C380.137 -125.765 382.365 -124.453 384.992 -123.073C391.907 -119.44 401.998 -113.311 407.9 -109.16C410.719 -107.178 413.074 -105.537 413.133 -105.513C413.192 -105.489 420.153 -110.61 428.602 -116.893C443.924 -128.288 443.966 -128.316 445.229 -127.542C456.389 -120.704 468.17 -110.129 475.436 -100.424C478.806 -95.9225 483.379 -88.5401 483.371 -87.6135C483.368 -87.2477 477.769 -80.7666 470.93 -73.211C464.091 -65.6554 458.431 -59.3148 458.353 -59.1207C458.274 -58.9267 459.285 -57.1971 460.599 -55.2773C464.052 -50.2321 470.214 -39.4832 473.115 -33.4448C474.493 -30.5771 475.963 -27.565 476.382 -26.7513L477.144 -25.2717L496.362 -27.5147L515.579 -29.7578L516.998 -27.2632C519.317 -23.1884 523.559 -13.2399 525.123 -8.21083C528.085 1.31535 529.922 13.6204 529.64 22.0556L529.548 24.8365L511.041 30.6459L492.535 36.4554L492.872 43.0839C493.255 50.6284 493.054 61.3643 492.387 68.993C492.137 71.8511 491.989 74.3278 492.058 74.4968C492.128 74.6658 500.208 78.1641 510.014 82.2707L527.843 89.7373L527.865 92.821C527.905 98.1665 526.083 110.264 524.189 117.232C521.618 126.692 514.498 142.025 512.251 142.94C511.858 143.1 503.47 141.508 493.609 139.402C483.749 137.296 475.316 135.533 474.87 135.483C474.226 135.412 473.493 136.463 471.333 140.557C467.76 147.326 462.116 156.394 457.661 162.52C455.693 165.226 454.184 167.643 454.308 167.89C454.432 168.137 459.609 174.826 465.813 182.753C472.016 190.68 477.244 197.492 477.431 197.892C477.694 198.456 477.073 199.639 474.646 203.193C468.979 211.493 461.339 219.89 454.5 225.333C448.452 230.147 437.861 236.539 436.707 236.072C436.416 235.954 429.834 230.294 422.082 223.495C414.329 216.696 407.835 211.073 407.65 210.998C407.466 210.923 404.8 212.412 401.726 214.307C395.715 218.012 386.555 222.828 378.475 226.53L373.445 228.835L376.105 247.705L378.765 266.575L376.243 267.923C372.126 270.124 362.063 274.1 356.962 275.541C347.295 278.271 334.74 279.846 326.186 279.402L323.35 279.255L317.431 262.049C314.176 252.586 311.283 244.387 311.004 243.829C310.536 242.895 309.997 242.826 304.226 242.97C294.761 243.205 281.546 242.595 274.3 241.59C272.447 241.332 272.154 241.454 271.299 242.841C270.778 243.686 267.44 251.572 263.881 260.365L257.409 276.352L255.08 276.404C251.429 276.485 240.424 274.993 234.064 273.553C228.807 272.364 214.664 267.459 212.367 266.029L212.366 266.028ZM262.314 172.452C291.186 180.052 320.36 178.282 347.049 167.313C384.415 151.954 411.602 121.174 421.72 82.7726C427.785 59.7537 427.12 35.3455 419.792 11.9632C417.785 5.562 412.376 -6.73118 408.996 -12.5714C393.715 -38.9716 371.013 -58.6872 342.769 -70.0848C309.841 -83.3725 274.875 -83.4198 242.548 -70.2205C216.012 -59.3855 195.494 -41.6452 180.568 -16.6304C175.906 -8.81661 170.021 5.39976 167.849 14.0954C162.781 34.3866 162.4 53.5062 166.672 73.0607C168.758 82.609 170.737 88.691 174.65 97.5848C187.508 126.805 209.491 149.325 239.807 164.333C243.895 166.357 256.683 170.97 262.314 172.452V172.452Z" fill="#6B6B6A"/>
</g>
<defs>
<clipPath id="clip0_149_2">
<rect width="477.957" height="465.357" fill="white" transform="translate(130.207 -241.597) rotate(16.2018)"/>
</clipPath>
</defs>
</svg>
