<svg width="482" height="470" viewBox="0 0 482 470" fill="none" xmlns="http://www.w3.org/2000/svg">
<g clip-path="url(#clip0_126_137)">
<path d="M220.762 466.233C220.239 466.082 217.608 465.461 214.915 464.854C212.223 464.246 209.848 463.485 209.637 463.162C209.426 462.838 208.659 454.552 207.933 444.747C207.207 434.942 206.548 426.566 206.468 426.134C206.354 425.512 205.106 425.095 200.456 424.127C192.762 422.525 182.212 419.572 174.901 416.974C171.672 415.827 168.849 415.035 168.627 415.214C168.406 415.393 163.277 421.986 157.23 429.865C151.183 437.744 145.961 444.419 145.624 444.698C145.149 445.092 143.803 444.814 139.611 443.457C123.579 438.267 108.846 429.554 98.4819 419.134L96.002 416.64L104.418 399.705C109.047 390.391 112.849 382.633 112.867 382.465C112.886 382.297 111.44 380.94 109.654 379.449C103.501 374.313 95.3916 366.158 87.1581 356.828L85.5866 355.047L67.739 362.444C50.8766 369.433 49.8382 369.796 48.9276 369.017C48.3975 368.563 46.1406 366.153 43.9122 363.66C34.2214 352.819 26.0765 338.086 22.4445 324.828L21.4207 321.091L22.7467 320.265C23.476 319.81 30.724 315.114 38.8534 309.829C50.4951 302.261 53.6169 300.015 53.5534 299.256C53.5091 298.725 52.564 295.611 51.4532 292.335C49.1029 285.403 46.284 274.514 45.1262 267.893L44.3156 263.258L37.7916 262.233C34.2034 261.669 25.4164 260.565 18.265 259.781L5.26236 258.354L3.94422 252.116C2.4092 244.852 1.53129 236.456 1.53046 229.032C1.52954 220.891 4.35944 204.102 5.95302 202.793C6.21276 202.58 15.0559 201.827 25.6043 201.121L44.7833 199.836L45.5327 196.339C47.6002 186.691 52.5438 170.035 55.078 164.178C55.4219 163.383 53.449 161.779 39.7905 151.748L24.1083 140.231L24.6128 138.374C25.6568 134.533 29.7196 124.377 31.9474 120.04C36.6935 110.799 45.0648 99.5064 51.0881 94.2186L53.253 92.3181L70.51 100.531C80.0013 105.048 87.9676 108.766 88.2127 108.793C88.4578 108.82 90.2108 107.13 92.1081 105.039C97.3096 99.3043 104.171 92.7639 110.568 87.4421C115.798 83.0912 116.267 82.5702 115.863 81.5714C115.618 80.9685 112.162 73.0613 108.182 64L100.945 47.5247L103.039 45.5266C113.304 35.7309 128.72 26.7411 142.662 22.4205C151.524 19.6741 149.293 18.0725 161.908 36.2391L172.848 51.9945L177.212 50.5803C186.054 47.715 200.342 44.3058 208.315 43.1587L210.36 42.8646L211.179 38.2938C211.629 35.78 212.705 27.2844 213.569 19.4148L215.143 5.10669L216.931 4.59831C225.608 2.13087 239.114 0.905764 250.387 1.56356C258.827 2.05607 271.746 4.72907 272.431 6.12452C272.571 6.40882 273.294 14.8373 274.038 24.8545C274.782 34.8717 275.517 43.2226 275.67 43.412C275.824 43.6015 278.324 44.2596 281.227 44.8744C288.869 46.4931 300.245 49.6505 307.053 52.0424C310.304 53.1847 313.016 54.125 313.08 54.1319C313.143 54.1388 318.451 47.3196 324.876 38.9779C336.528 23.8499 336.561 23.8123 337.986 24.2138C350.584 27.7636 364.794 34.7424 374.423 42.1089C378.889 45.526 385.295 51.389 385.539 52.2831C385.635 52.636 382.007 60.3939 377.477 69.5229C372.947 78.6519 369.222 86.2913 369.199 86.4994C369.176 86.7075 370.619 88.0975 372.405 89.5883C377.098 93.5062 385.948 102.178 390.379 107.201C392.484 109.587 394.717 112.087 395.342 112.756L396.477 113.973L414.363 106.595L432.249 99.2172L434.292 101.233C437.631 104.524 444.415 112.947 447.286 117.362C452.724 125.726 457.833 137.07 459.853 145.264L460.519 147.966L444.286 158.583L428.053 169.2L430.178 175.488C432.596 182.645 435.318 193.032 436.747 200.555C437.283 203.374 437.813 205.797 437.926 205.941C438.039 206.085 446.765 207.257 457.318 208.547L476.504 210.89L477.364 213.852C478.853 218.986 480.385 231.123 480.455 238.344C480.55 248.147 477.861 264.837 475.947 266.328C475.613 266.589 467.107 267.334 457.045 267.986C446.984 268.637 438.389 269.23 437.946 269.303C437.307 269.41 436.888 270.621 435.92 275.147C434.32 282.632 431.35 292.892 428.726 299.998C427.567 303.137 426.772 305.872 426.958 306.077C427.145 306.281 433.944 311.312 442.067 317.256C450.19 323.201 457.072 328.337 457.36 328.671C457.767 329.142 457.49 330.45 456.12 334.529C452.92 344.057 447.847 354.212 442.744 361.308C438.23 367.584 429.773 376.612 428.536 376.476C428.223 376.441 420.352 372.782 411.044 368.344C401.736 363.906 393.959 360.257 393.761 360.236C393.563 360.214 391.402 362.371 388.959 365.029C384.179 370.228 376.672 377.35 369.901 383.108L365.686 386.692L373.371 404.13L381.055 421.569L378.994 423.551C375.63 426.787 367.025 433.346 362.507 436.118C353.944 441.371 342.29 446.297 333.936 448.193L331.167 448.822L320.798 433.87C315.094 425.646 310.084 418.541 309.664 418.08C308.96 417.308 308.422 417.389 302.907 419.094C293.862 421.891 280.978 424.893 273.731 425.893C271.878 426.149 271.629 426.346 271.183 427.912C270.911 428.867 269.84 437.363 268.802 446.792L266.916 463.936L264.689 464.619C261.197 465.689 250.2 467.241 243.688 467.583C238.306 467.865 223.362 466.986 220.763 466.233L220.762 466.233ZM243.419 362.609C273.27 362.082 300.867 352.456 323.573 334.65C355.364 309.722 373.17 272.715 372.479 233.009C372.064 209.208 364.796 185.897 351.392 165.384C347.723 159.768 339.178 149.406 334.339 144.704C312.463 123.446 285.259 110.637 254.982 107.338C219.683 103.492 186.018 112.943 158.491 134.425C135.894 152.06 120.966 174.706 113.394 202.834C111.029 211.62 109.227 226.901 109.498 235.859C110.131 256.764 114.957 275.269 124.379 292.928C128.98 301.551 132.536 306.867 138.718 314.363C159.028 338.993 186.301 354.697 219.553 360.908C224.037 361.745 237.597 362.712 243.419 362.609V362.609Z" fill="#6B6B6A"/>
</g>
<defs>
<clipPath id="clip0_126_137">
<rect width="477.957" height="465.357" fill="white" transform="translate(3.82941) rotate(0.443444)"/>
</clipPath>
</defs>
</svg>
