<svg width="155" height="197" viewBox="0 0 155 197" fill="none" xmlns="http://www.w3.org/2000/svg">
<g clip-path="url(#clip0_150_6)">
<path d="M136.697 327.309C136.398 327.123 134.875 326.277 133.31 325.429C131.746 324.58 130.405 323.692 130.331 323.455C130.257 323.217 131.232 317.941 132.498 311.729C133.765 305.517 134.822 300.204 134.849 299.922C134.887 299.516 134.185 299.039 131.469 297.624C126.975 295.282 120.945 291.602 116.864 288.71C115.061 287.433 113.447 286.447 113.279 286.52C113.11 286.592 108.773 289.785 103.641 293.616C98.5085 297.446 94.0986 300.674 93.841 300.788C93.4774 300.949 92.6903 300.541 90.3269 298.965C81.2871 292.936 73.6702 284.949 69.0635 276.668L67.9612 274.687L76.1492 265.652C80.6526 260.682 84.3707 256.534 84.4115 256.433C84.4523 256.332 83.7926 255.237 82.9454 253.999C80.0267 249.734 76.4224 243.253 72.947 236.021L72.2837 234.641L59.913 236.106C48.2251 237.491 47.5172 237.534 47.0886 236.891C46.839 236.517 45.8607 234.626 44.9144 232.688C40.7992 224.264 38.3247 213.695 38.3924 204.832L38.4115 202.334L39.3791 202.053C39.9112 201.899 45.2313 200.254 51.2015 198.398C59.751 195.74 62.0815 194.893 62.1752 194.411C62.2406 194.074 62.1995 191.975 62.0838 189.748C61.8391 185.035 61.9967 177.784 62.4375 173.473L62.7462 170.455L58.8773 168.676C56.7494 167.698 51.4898 165.474 47.1894 163.735L39.3704 160.573L39.6448 156.471C39.9642 151.695 40.8897 146.331 42.1892 141.723C43.6142 136.672 48.3104 126.748 49.5284 126.215C49.7269 126.129 55.3463 127.21 62.0159 128.619L74.1424 131.18L75.2197 129.141C78.1921 123.516 84.1768 114.046 86.7749 110.855C87.1275 110.422 86.1841 109.081 79.4649 100.465L71.7501 90.5713L72.3882 89.5077C73.7087 87.3069 78.0083 81.716 80.1503 79.4145C84.7136 74.5116 91.886 68.9695 96.5497 66.743L98.2259 65.9427L107.497 74.0611C112.595 78.5263 116.888 82.2283 117.035 82.2879C117.183 82.3475 118.566 81.6061 120.11 80.6404C124.342 77.9928 129.745 75.1356 134.646 72.9534C138.654 71.1692 139.036 70.9282 138.96 70.2375C138.914 69.8206 138.154 64.3085 137.271 57.9885L135.665 46.4976L137.314 45.6243C145.4 41.3431 156.54 38.464 165.948 38.2242C171.929 38.0718 170.825 36.6873 175.472 50.1695L179.502 61.8623L182.457 61.7489C188.446 61.5192 197.909 61.9056 203.058 62.5901L204.379 62.7656L205.687 60.0725C206.407 58.5914 208.562 53.5078 210.476 48.7758L213.958 40.1724L215.157 40.17C220.974 40.1584 229.57 41.7632 236.45 44.1454C241.601 45.9289 249.15 49.85 249.331 50.8359C249.367 51.0368 248.34 56.3937 247.048 62.7402C245.756 69.0867 244.749 74.3974 244.811 74.5419C244.873 74.6863 246.31 75.5326 248.003 76.4224C252.462 78.7651 258.968 82.7164 262.774 85.393C264.592 86.6712 266.11 87.7295 266.148 87.7449C266.186 87.7603 270.675 84.4582 276.122 80.4068C286.002 73.0594 286.029 73.0419 286.843 73.5406C294.039 77.9495 301.635 84.7685 306.32 91.0259C308.493 93.9285 311.442 98.6886 311.437 99.286C311.435 99.5219 307.825 103.701 303.415 108.573C299.005 113.444 295.356 117.533 295.305 117.658C295.255 117.783 295.906 118.898 296.754 120.136C298.98 123.389 302.953 130.32 304.824 134.213C305.712 136.062 306.66 138.004 306.93 138.529L307.422 139.483L319.813 138.037L332.204 136.591L333.119 138.199C334.614 140.826 337.35 147.241 338.358 150.484C340.268 156.626 341.452 164.56 341.27 169.999L341.211 171.792L329.278 175.538L317.345 179.284L317.563 183.558C317.81 188.422 317.68 195.345 317.25 200.263C317.089 202.106 316.993 203.703 317.038 203.812C317.083 203.921 322.293 206.177 328.616 208.825L340.111 213.639L340.126 215.627C340.151 219.074 338.977 226.874 337.756 231.367C336.098 237.467 331.507 247.353 330.058 247.943C329.805 248.046 324.396 247.02 318.038 245.662C311.68 244.304 306.243 243.167 305.955 243.135C305.54 243.089 305.068 243.767 303.675 246.407C301.371 250.772 297.732 256.618 294.859 260.568C293.59 262.313 292.617 263.871 292.697 264.031C292.777 264.19 296.116 268.503 300.115 273.614C304.115 278.725 307.486 283.118 307.606 283.375C307.776 283.739 307.375 284.502 305.811 286.793C302.157 292.146 297.231 297.559 292.821 301.069C288.922 304.173 282.092 308.295 281.349 307.993C281.161 307.917 276.917 304.268 271.918 299.884C266.919 295.5 262.732 291.874 262.613 291.826C262.494 291.778 260.775 292.738 258.793 293.96C254.917 296.349 249.011 299.454 243.801 301.841L240.558 303.327L242.273 315.494L243.988 327.661L242.362 328.531C239.708 329.95 233.219 332.513 229.93 333.442C223.697 335.202 215.602 336.218 210.086 335.932L208.258 335.837L204.441 324.743C202.342 318.641 200.477 313.355 200.297 312.995C199.995 312.393 199.648 312.349 195.927 312.441C189.824 312.593 181.303 312.2 176.631 311.551C175.436 311.385 175.247 311.464 174.696 312.358C174.36 312.903 172.208 317.988 169.913 323.657L165.74 333.965L164.238 333.999C161.884 334.051 154.788 333.089 150.687 332.161C147.298 331.394 138.179 328.231 136.697 327.309L136.697 327.309ZM168.902 266.972C187.519 271.872 206.33 270.732 223.538 263.658C247.631 253.756 265.161 233.909 271.685 209.148C275.596 194.306 275.167 178.568 270.442 163.492C269.148 159.364 265.66 151.438 263.481 147.672C253.628 130.65 238.99 117.937 220.779 110.588C199.547 102.021 177.002 101.99 156.158 110.501C139.048 117.487 125.818 128.926 116.194 145.055C113.188 150.093 109.393 159.26 107.993 164.866C104.725 177.95 104.479 190.278 107.234 202.886C108.579 209.043 109.855 212.964 112.378 218.699C120.669 237.54 134.843 252.06 154.39 261.737C157.026 263.042 165.271 266.016 168.902 266.972V266.972Z" fill="#6B6B6A"/>
</g>
<defs>
<clipPath id="clip0_150_6">
<rect width="308.179" height="300.055" fill="white" transform="translate(83.722) rotate(16.2018)"/>
</clipPath>
</defs>
</svg>
